<?xml version="1.0" encoding="iso-8859-1"?>
<!-- Generator: Adobe Illustrator 18.1.1, SVG Export Plug-In . SVG Version: 6.00 Build 0)  -->
<svg version="1.1" id="Capa_1" xmlns="http://www.w3.org/2000/svg" xmlns:xlink="http://www.w3.org/1999/xlink" x="0px" y="0px"
	 viewBox="0 0 43.986 43.986" style="enable-background:new 0 0 43.986 43.986;" xml:space="preserve" fill="#299fef">
<g>
	<path style="fill:#299fef;" d="M6.681,18.286v16.79h2.283c1.186,0,2.149-0.962,2.149-2.149v-16.79H8.829
		C7.643,16.137,6.681,17.099,6.681,18.286z"/>
	<path style="fill:#299fef;" d="M15.412,18.286v16.79h2.284c1.185,0,2.149-0.962,2.149-2.149v-16.79h-2.284
		C16.373,16.137,15.412,17.099,15.412,18.286z"/>
	<path style="fill:#299fef;" d="M24.142,18.286v16.79h2.284c1.185,0,2.149-0.962,2.149-2.149v-16.79h-2.283
		C25.104,16.137,24.142,17.099,24.142,18.286z"/>
	<path style="fill:#299fef;" d="M32.873,18.286v16.79h2.283c1.186,0,2.149-0.962,2.149-2.149v-16.79h-2.283
		C33.834,16.137,32.873,17.099,32.873,18.286z"/>
	<path style="fill:#299fef;" d="M39.767,12.601c0-0.816-0.795-2.019-1.776-2.687L24.173,0.512c-0.981-0.667-2.583-0.684-3.579-0.038
		L6.02,9.952c-0.995,0.646-1.802,1.832-1.802,2.648v1.478h35.549C39.767,14.078,39.767,13.417,39.767,12.601z"/>
	<path style="fill:#299fef;" d="M3.323,41.837c0,1.187,0.961,2.149,2.149,2.149h33.042c1.186,0,2.149-0.962,2.149-2.149v-3.85H3.323
		V41.837z"/>
</g>
<g>
</g>
<g>
</g>
<g>
</g>
<g>
</g>
<g>
</g>
<g>
</g>
<g>
</g>
<g>
</g>
<g>
</g>
<g>
</g>
<g>
</g>
<g>
</g>
<g>
</g>
<g>
</g>
<g>
</g>
</svg>
