<?xml version="1.0" encoding="utf-8"?>
<!-- Generator: Adobe Illustrator 16.0.0, SVG Export Plug-In . SVG Version: 6.00 Build 0)  -->
<!DOCTYPE svg PUBLIC "-//W3C//DTD SVG 1.1//EN" "http://www.w3.org/Graphics/SVG/1.1/DTD/svg11.dtd">
<svg version="1.1"
	 id="svg2" xmlns:sodipodi="http://sodipodi.sourceforge.net/DTD/sodipodi-0.dtd" xmlns:svg="http://www.w3.org/2000/svg" xmlns:rdf="http://www.w3.org/1999/02/22-rdf-syntax-ns#" xmlns:inkscape="http://www.inkscape.org/namespaces/inkscape" xmlns:dc="http://purl.org/dc/elements/1.1/" xmlns:cc="http://creativecommons.org/ns#" sodipodi:docname="Picto-City-Ggris.svg" inkscape:version="0.48.4 r9939"
	 xmlns="http://www.w3.org/2000/svg" xmlns:xlink="http://www.w3.org/1999/xlink" x="0px" y="0px" width="380px" height="402px"
	 viewBox="0 0 380 402" enable-background="new 0 0 380 402" xml:space="preserve">
<sodipodi:namedview  id="base" showgrid="false" pagecolor="#ffffff" inkscape:cy="368.73798" inkscape:cx="502.12723" bordercolor="#666666" inkscape:zoom="0.49497475" borderopacity="1.0" inkscape:snap-page="true" inkscape:bbox-paths="true" inkscape:snap-bbox="true" inkscape:snap-object-midpoints="true" inkscape:snap-center="true" inkscape:window-maximized="1" inkscape:window-y="-8" inkscape:window-x="-8" inkscape:window-height="1018" inkscape:window-width="1920" inkscape:current-layer="g4505" inkscape:document-units="px" inkscape:pageshadow="2" inkscape:pageopacity="0.0">
	</sodipodi:namedview>
<g id="layer1" transform="translate(0,-52.36218)" inkscape:label="Calque 1" inkscape:groupmode="layer">
	<g id="g3022" transform="matrix(3.9772015,0,0,3.9772015,2.7632007e-5,52.221259)">
		<g id="g5135" transform="matrix(6.9615162,0,0,-6.9615162,-2223.7063,4333.9965)">
			<g id="g5051" transform="matrix(0.53037579,0,0,0.53037579,155.18248,492.39323)">
				
					<g id="g4811" transform="matrix(0.21460403,0,0,0.21460403,261.44009,99.837119)" inkscape:transform-center-y="-4.2252541e-005" inkscape:transform-center-x="-9.6693334">
					<g id="g4249" transform="translate(0,-83.510774)">
						<g id="g4837" transform="translate(179.58307,103.4473)">
						</g>
						<g id="g4269" transform="matrix(2.6720626,0,0,2.6720626,-780.0071,-911.18721)" inkscape:transform-center-x="-120.39265">
							<g id="g4271" transform="translate(0,-83.510774)">
								
									<g id="g4297" transform="matrix(1.7851741,0,0,1.7851741,144.56963,-240.44617)" inkscape:transform-center-y="-39.296977" inkscape:transform-center-x="-23.918735">
									<g id="g3028" transform="matrix(0.08690732,0,0,-0.08690732,130.00878,539.5759)">
										<g id="g3725" transform="matrix(2.1580064,0,0,-2.1580064,-481.15856,1950.5675)">
											<g id="g3785" transform="matrix(5.3859865,0,0,5.3859865,-1439.1222,-3038.5717)">
												<g id="g4849" transform="matrix(0.22266326,0,0,0.22266326,257.59059,592.31843)">
													<g id="g4817" transform="matrix(2.8419728,0,0,2.8419728,-841.65875,-1057.4427)">
														<g id="g4855" transform="matrix(1.5634469,0,0,1.5634469,-108.54322,-176.37457)">
															<g id="g4473" transform="matrix(0.80615237,0,0,0.80615237,26.335337,-46.284012)">
																<g id="g4517" transform="matrix(1.2404604,0,0,1.2404604,-32.66796,-41.823417)">
																	<g id="g4505" transform="translate(180.26292,106.49086)">
																		<g id="g6451" transform="matrix(0.52483744,0,0,-0.52483744,-1963.7884,664.39814)">
																			<path id="path5961" inkscape:connector-curvature="0" fill="#FFFFFF" d="M3997.109,394.927l-0.093,31.577h0.654
																				l-0.01-1.607h1.253v1.613l1.094,0.006l0.01-1.614h1.253l-0.01,1.614l0.993,0.006l0.01-1.613h1.253l-0.01,1.613
																				l1.94,0.006l-0.04,15.242l1.84,0.006l0.087-27.904l6.307,0.027l0.047-18.929l-16.582-0.047L3997.109,394.927z
																				 M3997.749,395.867h1.254l-0.014,2.72h-1.247l0.01-2.72H3997.749z M4000.095,395.881h1.253l-0.01,2.72h-1.253
																				L4000.095,395.881z M4002.349,395.881h1.253l-0.01,2.72h-1.253L4002.349,395.881z M4004.816,395.887h1.253
																				l-0.01,2.72h-1.253L4004.816,395.887z M4007.277,395.893l0.01,0.006h1.253l-0.014,2.72h-1.253l0.01-2.727
																				L4007.277,395.893z M4009.523,395.907h1.253l-0.014,2.72h-1.247l0.01-2.72H4009.523z M3997.736,399.314h1.253
																				l-0.01,2.72h-1.253L3997.736,399.314z M4000.089,399.328h1.253l-0.01,2.72h-1.26l0.014-2.72H4000.089z
																				 M4002.336,399.334h1.253l-0.01,2.72h-1.253L4002.336,399.334z M4004.81,399.334h1.247l-0.01,2.72h-1.253
																				l0.014-2.72H4004.81z M4007.27,399.348h1.253l-0.01,2.72l-1.26-0.006l0.014-2.714H4007.27z M4009.51,399.354
																				h1.254l-0.01,2.72h-1.253L4009.51,399.354z M4025.079,399.381l-0.093,32.424l10.115,0.027l0.093-32.424
																				L4025.079,399.381z M4026.625,400.761h0.62l-0.01,2.72h-0.627l0.014-2.714v-0.006H4026.625z M4028.506,400.775
																				h0.627l-0.01,2.72h-0.627L4028.506,400.775z M4030.212,400.775h0.627l-0.014,2.72h-0.627L4030.212,400.775z
																				 M4031.9,400.781h0.62l-0.01,2.714h-0.627l0.014-2.714H4031.9z M4033.56,400.781h0.627l-0.014,2.72h-0.627
																				L4033.56,400.781z M3997.728,403.408h1.253l-0.014,2.72h-1.247l0.01-2.72H3997.728z M4000.074,403.408h0.01
																				h1.247l-0.01,2.72h-1.253l0.01-2.72H4000.074z M4002.329,403.414h1.253l-0.014,2.72h-1.247l0.01-2.72H4002.329z
																				 M4004.795,403.414h1.253l-0.01,2.72h-1.253L4004.795,403.414z M4007.256,403.428h0.01h1.253l-0.014,2.72h-1.253
																				l0.01-2.72H4007.256z M4026.505,404.168h0.62l-0.01,2.72h-0.62L4026.505,404.168z M4028.385,404.174h0.627
																				l-0.01,2.72h-0.627L4028.385,404.174z M4030.092,404.18h0.62l-0.01,2.72h-0.62L4030.092,404.18z
																				 M4031.772,404.18h0.634l-0.014,2.72h-0.634L4031.772,404.18z M4033.44,404.186h0.627l-0.014,2.72h-0.62
																				l0.01-2.72H4033.44z M3997.715,407.086h0.01h1.247l-0.01,2.72h-1.253l0.01-2.72H3997.715z M4000.062,407.092
																				h1.253l-0.01,2.72l-1.253-0.014L4000.062,407.092L4000.062,407.092z M4002.315,407.098h1.253l-0.014,2.72h-1.254
																				L4002.315,407.098z M4004.789,407.098h1.253l-0.01,2.72h-1.26l0.014-2.72H4004.789z M4007.243,407.104
																				l1.26,0.006l-0.014,2.72h-1.253l0.014-2.72l-0.01-0.006H4007.243z M4026.492,408.084h0.62l-0.01,2.72h-0.62
																				L4026.492,408.084z M4028.379,408.084h0.62l-0.01,2.72h-0.627l0.014-2.72H4028.379z M4030.079,408.091h0.62
																				l-0.01,2.72h-0.62L4030.079,408.091z M4031.759,408.091h0.634l-0.01,2.727h-0.633l0.01-2.72L4031.759,408.091
																				L4031.759,408.091z M4033.426,408.096h0.627l-0.01,2.72h-0.627L4033.426,408.096z M3997.708,410.717l1.247,0.006
																				l-0.01,2.72h-1.253l0.01-2.72l0.01-0.006H3997.708z M4000.055,410.723h1.253l-0.01,2.72h-1.253L4000.055,410.723
																				z M4002.309,410.729h1.253l-0.014,2.72h-1.253L4002.309,410.729z M4004.776,410.735h1.253l-0.01,2.72h-1.26
																				l0.014-2.72H4004.776z M4026.485,411.742h0.62l-0.014,2.72h-0.62L4026.485,411.742z M4028.365,411.748h0.627
																				l-0.014,2.72h-0.627L4028.365,411.748z M4030.066,411.748h0.01h0.62l-0.014,2.72h-0.62l0.01-2.72H4030.066z
																				 M4031.753,411.754h0.633l-0.014,2.72h-0.634l0.014-2.714v-0.006H4031.753z M4033.413,411.76h0.01h0.627
																				l-0.014,2.72h-0.627l0.01-2.72H4033.413z M3997.695,414.373h1.253l-0.01,2.72h-1.26l0.014-2.72H3997.695z
																				 M4000.048,414.379h1.247l-0.01,2.72h-1.253l0.014-2.72H4000.048z M4002.289,414.385h1.253l-0.01,2.72h-1.253
																				L4002.289,414.385z M4004.761,414.391h1.253l-0.01,2.72h-1.253L4004.761,414.391z M4008.496,414.705l-0.08,27.07
																				l8.635,0.027v-1.76l-2.567-0.006l0.014-1.24l2.56,0.006l0.01-2l-2.594-0.006v-1.24l2.6,0.006l0.01-2.787
																				l-2.587-0.006v-1.073l3.414,0.006v0.18l1.167,0.006v-0.18l3.42,0.014v0.18h1.473l0.047-17.149l-15.515-0.047
																				L4008.496,414.705z M4026.466,415.565h0.62l-0.01,2.72h-0.62L4026.466,415.565z M4028.352,415.565h0.627
																				l-0.01,2.72h-0.627L4028.352,415.565z M4030.059,415.571h0.62l-0.01,2.72h-0.627l0.014-2.72H4030.059z
																				 M4031.739,415.571h0.634l-0.01,2.72h-0.633L4031.739,415.571z M4033.406,415.577h0.627l-0.01,2.72h-0.627
																				L4033.406,415.577z M4010.09,417.117l3.587,0.014v1.24l-3.587-0.006v-1.247V417.117z M4014.59,417.137
																				l3.587,0.006v1.247l-3.587-0.014v-1.24V417.137z M4019.144,417.151l3.587,0.006v1.24l-3.587-0.006V417.151
																				L4019.144,417.151z M3997.681,418.198h0.01h1.247l-0.01,2.72h-1.253l0.01-2.72H3997.681z M4000.028,418.198
																				h1.253l-0.01,2.72h-1.253L4000.028,418.198z M4002.282,418.212h1.253l-0.014,2.714h-1.253L4002.282,418.212z
																				 M4004.756,418.218l1.253,0.006l-0.01,2.72h-1.253l0.01-2.72V418.218z M4026.458,419.398h0.62l-0.014,2.72h-0.62
																				L4026.458,419.398z M4028.346,419.398h0.627l-0.014,2.72h-0.627L4028.346,419.398z M4030.046,419.404h0.627
																				l-0.014,2.72h-0.62l0.01-2.72H4030.046z M4031.726,419.404h0.633l-0.01,2.72h-0.634L4031.726,419.404
																				L4031.726,419.404z M4033.386,419.418h0.633l-0.014,2.714h-0.627l0.01-2.714H4033.386z M4010.056,420.691
																				l3.587,0.014v1.247l-3.587-0.014V420.691L4010.056,420.691z M4014.544,420.705l3.587,0.014v1.247l-3.587-0.006
																				v-1.253V420.705z M4019.111,420.719l3.581,0.014v1.247l-3.581-0.014V420.719L4019.111,420.719z
																				 M3997.675,421.466h1.253l-0.01,2.72h-1.254L3997.675,421.466z M4000.021,421.48h1.253l-0.014,2.72h-1.247
																				l0.01-2.72H4000.021z M4002.269,421.48h1.253l-0.01,2.72h-1.253L4002.269,421.48z M4026.445,423.213h0.62
																				l-0.01,2.72h-0.62L4026.445,423.213z M4028.332,423.213h0.62l-0.01,2.727h-0.627l0.014-2.727H4028.332z
																				 M4030.032,423.219h0.62l-0.01,2.72h-0.62L4030.032,423.219z M4031.713,423.225h0.633l-0.01,2.72h-0.633
																				l0.01-2.714V423.225L4031.713,423.225z M4033.379,423.231h0.627l-0.01,2.72h-0.634l0.014-2.72H4033.379z
																				 M4010.043,424.525l3.587,0.014v1.24l-3.587-0.014V424.525z M4014.537,424.539l3.587,0.014v1.24l-3.587-0.014
																				V424.539z M4019.098,424.553l3.587,0.014v1.233l-3.587-0.006v-1.24V424.553z M4026.438,426.94h0.62l-0.01,2.72
																				h-0.62L4026.438,426.94z M4028.319,426.946h0.627l-0.01,2.714h-0.627L4028.319,426.946z M4030.025,426.952h0.62
																				l-0.01,2.727h-0.62L4030.025,426.952z M4031.706,426.952h0.634l-0.01,2.72h-0.633L4031.706,426.952
																				L4031.706,426.952z M4033.373,426.958H4034l-0.01,2.727h-0.627L4033.373,426.958z M4009.943,427.638l3.587,0.006
																				v1.24l-3.587-0.006V427.638L4009.943,427.638z M4014.45,427.644l3.587,0.014v1.234l-3.587-0.006v-1.24V427.644z
																				 M4018.997,427.664l3.587,0.006v1.24l-3.587-0.014v-1.233V427.664z M3990.474,428.177l-0.04,13.542h0.987v-1.307
																				c0,0,0.096-1.35,1-1.56c0,0,1.088,0.421,0.987,1.447v1.427h0.727v-1.3c0,0,0.105-1.355,1-1.573
																				c0,0,1.099,0.424,0.987,1.447v1.434h0.527v-1.3c0,0,0.106-1.354,1-1.567c0,0,1.095,0.424,0.987,1.447v1.427
																				h0.727v-1.307c0,0,0.101-1.35,1.006-1.56c0,0,1.089,0.421,0.987,1.447v1.427h0.713v-1.3c0,0,0.099-1.354,1-1.567
																				c0,0,1.095,0.431,0.993,1.454v1.427h0.513l0.04-13.542L3990.474,428.177L3990.474,428.177z M4004.062,441.759
																				l-1.994-0.014v0.014H4004.062z M4001.355,441.745l-1.993-0.006v0.006l1.987,0.006h0.01v-0.006H4001.355z
																				 M3996.648,441.731v0.006h1.587L3996.648,441.731z M3996.121,441.731l-1.987-0.006v0.006l1.987,0.006V441.731z
																				 M3993.406,441.725h-1.267l1.267,0.006V441.725z M3992.541,428.41c0,0,1.095,0.41,0.987,1.44v1.427h-1.98v-1.307
																				C3991.547,429.97,3991.636,428.611,3992.541,428.41L3992.541,428.41z M3995.253,428.41
																				c0,0,1.088,0.414,0.987,1.44v1.434l-1.987-0.006v-1.307C3994.253,429.971,3994.349,428.61,3995.253,428.41
																				L3995.253,428.41z M3997.768,428.424c0,0,1.096,0.414,0.993,1.44v1.433l-1.987-0.006v-1.307
																				C3996.774,429.985,3996.869,428.624,3997.768,428.424L3997.768,428.424z M4000.488,428.438
																				c0,0,1.102,0.418,0.993,1.44v1.427h-0.01h-1.987v-1.307c0,0,0.102-1.363,1-1.56H4000.488z M4003.188,428.444
																				c0,0,1.096,0.417,0.993,1.44v1.427h-1.987v-1.307C4002.195,430.004,4002.29,428.645,4003.188,428.444z
																				 M4009.989,431.604l3.587,0.006v1.24l-3.587-0.014v-1.233V431.604z M3992.44,432.071
																				c0,0,1.088,0.411,0.987,1.434v1.434h-1.987v-1.3C3991.44,433.638,3991.535,432.271,3992.44,432.071z
																				 M3995.147,432.077c0,0,1.104,0.411,0.993,1.427v1.44v0.006l-1.987-0.014v-1.3
																				C3994.153,433.636,3994.248,432.273,3995.147,432.077L3995.147,432.077L3995.147,432.077z M3997.675,432.077
																				c0,0,1.095,0.411,0.987,1.434v1.44l-1.987-0.006v-1.3C3996.674,433.645,3996.776,432.275,3997.675,432.077
																				L3997.675,432.077z M4000.388,432.091c0,0,1.082,0.411,0.98,1.433v1.434h-1.987v-1.3
																				C3999.382,433.658,3999.484,432.291,4000.388,432.091L4000.388,432.091z M4003.089,432.097
																				c0,0,1.098,0.407,0.993,1.427v1.44v0.006l-1.994-0.014v-1.294c0,0,0.095-1.367,1-1.567v0.002H4003.089z
																				 M4017.791,432.917l-0.02,8.868l17.315,0.053v-0.573h-2.527v-1.247h2.527v-2h-2.527v-1.234h2.527v-1.74h-2.527
																				v-1.24h2.527v-0.88L4017.791,432.917L4017.791,432.917z M4018.984,433.804h6.101v1.24h-6.101V433.804z
																				 M4025.672,433.804h6.101v1.24h-6.101V433.804z M3992.521,435.478c0,0,1.089,0.414,0.98,1.44v1.434l-1.98-0.006
																				v-1.314C3991.52,437.032,3991.615,435.684,3992.521,435.478L3992.521,435.478z M3995.235,435.491
																				c0,0,1.088,0.414,0.987,1.44v1.427h-1.987v-1.307C3994.235,437.052,3994.333,435.698,3995.235,435.491z
																				 M3997.755,435.497c0,0,1.088,0.411,0.987,1.44v1.427h-1.98v-1.307
																				C3996.761,437.058,3996.855,435.704,3997.755,435.497z M4000.461,435.503c0,0,1.095,0.421,0.993,1.44v1.434
																				h-0.01l-1.987-0.006v-1.307c0,0,0.106-1.354,1-1.56L4000.461,435.503z M4003.169,435.517
																				c0,0,1.095,0.41,0.993,1.44v1.427h-1.987v-1.307C4002.175,437.077,4002.271,435.724,4003.169,435.517
																				L4003.169,435.517z M4009.977,435.544l3.587,0.006v1.24l-3.587-0.014v-1.234V435.544z M4018.984,436.771h6.101
																				v1.247h-6.101V436.771z M4025.672,436.785h6.101v1.247h-6.101V436.785z M4010.003,438.778l3.587,0.006v1.247
																				l-3.587-0.014V438.778L4010.003,438.778z M4018.984,440.018h6.101v1.247h-6.101V440.018z M4025.685,440.018
																				h6.101v1.247h-6.101V440.018z"/>
																		</g>
																	</g>
																</g>
															</g>
														</g>
													</g>
												</g>
											</g>
										</g>
									</g>
								</g>
							</g>
						</g>
					</g>
				</g>
			</g>
		</g>
	</g>
</g>
</svg>
